<svg id="Layer_1" data-name="Layer 1" xmlns="http://www.w3.org/2000/svg" viewBox="0 0 23 24"><title>birth</title><path d="M18.12,21.63a1.8,1.8,0,1,0-1.8-1.8A1.77,1.77,0,0,0,18.12,21.63Zm-10.82,0a1.8,1.8,0,1,0-1.8-1.8A1.78,1.78,0,0,0,7.3,21.63Zm13.58-4.95a4.34,4.34,0,0,1,1.41,3.15,4.19,4.19,0,0,1-8.34.56H11.42A4.16,4.16,0,0,1,7.3,24a4.2,4.2,0,0,1-4.22-4.17,4.33,4.33,0,0,1,2.19-3.72c-.28-.39-2.53-5.29-2.53-5.29H.09V8.39H4.26l1.13,2.43H22.91A9.74,9.74,0,0,1,20.88,16.68ZM13.27,0a9.62,9.62,0,0,1,9.64,9.58H13.27Z"/></svg>